<?xml version="1.0" standalone="no"?>
<!DOCTYPE svg PUBLIC "-//W3C//DTD SVG 20010904//EN"
 "http://www.w3.org/TR/2001/REC-SVG-20010904/DTD/svg10.dtd">
<svg version="1.0" xmlns="http://www.w3.org/2000/svg"
 width="512.000000pt" height="512.000000pt" viewBox="0 0 512.000000 512.000000"
 preserveAspectRatio="xMidYMid meet">
<metadata>
Created by potrace 1.11, written by Peter Selinger 2001-2013
</metadata>
<g transform="translate(0.000000,512.000000) scale(0.100000,-0.100000)"
fill="#000000" stroke="none">
<path d="M0 2560 l0 -2560 2560 0 2560 0 0 2560 0 2560 -2560 0 -2560 0 0
-2560z m3808 1818 c17 -17 17 -3609 0 -3626 -17 -17 -2479 -17 -2496 0 -17 17
-17 3609 0 3626 17 17 2479 17 2496 0z"/>
<path d="M1963 3446 c-227 -55 -364 -253 -350 -506 10 -190 125 -420 335 -670
77 -92 545 -565 589 -595 22 -15 27 -11 172 120 391 354 557 547 685 794 162
313 150 537 -39 727 -97 98 -178 136 -295 142 -205 10 -359 -71 -460 -242
l-45 -76 -24 48 c-13 26 -58 81 -100 123 -78 78 -147 119 -232 138 -59 14
-172 12 -236 -3z m494 -442 c84 -19 153 -51 153 -70 0 -9 -21 -24 -47 -36 -25
-11 -64 -38 -87 -59 -22 -21 -47 -41 -57 -44 -22 -7 -119 57 -137 90 -13 26
-27 32 -36 16 -6 -9 -46 -19 -109 -27 -32 -4 -39 -1 -48 20 -10 20 -8 29 9 54
47 65 208 91 359 56z m427 -119 c91 -22 156 -55 156 -81 0 -46 -14 -86 -34
-100 -12 -7 -58 -17 -101 -22 -89 -10 -115 0 -184 68 -35 34 -37 35 -72 23
-20 -6 -55 -14 -77 -18 -36 -5 -43 -3 -57 19 -16 23 -15 27 1 55 29 48 91 69
209 70 55 0 127 -6 159 -14z m-593 -46 c29 -29 13 -42 -58 -47 -39 -2 -67 1
-87 11 l-28 15 23 12 c63 34 121 38 150 9z m417 -115 c12 -8 22 -21 22 -28 0
-27 -107 -35 -160 -12 l-33 14 34 15 c65 30 106 33 137 11z m-513 -283 c-4
-14 0 -21 12 -24 13 -3 11 -5 -7 -6 l-25 -2 25 -14 c14 -8 20 -14 13 -15 -6 0
-18 -3 -27 -6 -13 -5 -16 2 -16 40 0 35 4 46 16 46 11 0 13 -6 9 -19z m420
-121 c-4 -13 -2 -20 7 -20 10 0 10 -2 -1 -9 -17 -11 3 -25 25 -17 8 3 13 2 10
-3 -3 -5 -17 -11 -31 -13 -23 -5 -25 -2 -25 32 0 33 6 50 17 50 3 0 1 -9 -2
-20z m-256 -64 c73 0 97 -2 80 -9 -35 -13 -267 -3 -282 13 -10 10 -1 10 43 4
30 -5 102 -9 159 -8z m46 -46 c19 -5 -10 -8 -80 -8 -70 0 -99 3 -80 8 17 4 53
8 80 8 28 0 64 -4 80 -8z m380 -74 c86 1 102 -1 75 -9 -45 -12 -251 -3 -276
12 -15 9 -8 10 36 4 30 -4 105 -8 165 -7z m40 -46 c19 -5 -10 -8 -80 -8 -72 1
-98 3 -75 8 46 10 117 10 155 0z"/>
</g>
</svg>
